<?xml version="1.0" encoding="utf-8"?>
<!-- Generator: Adobe Illustrator 24.0.2, SVG Export Plug-In . SVG Version: 6.00 Build 0)  -->
<svg version="1.1" id="图层_1" xmlns="http://www.w3.org/2000/svg" xmlns:xlink="http://www.w3.org/1999/xlink" x="0px" y="0px"
	 viewBox="0 0 200 200" style="enable-background:new 0 0 200 200;" xml:space="preserve">
<style type="text/css">
	.st0{fill:#FFFFFF;}
</style>
<path class="st0" d="M183.2,146.4c-1.2,2-3.6,2.8-5.6,1.6s-2.8-3.6-1.6-5.6c23.6-42.4,8.4-96-34.4-119.6C99.2-0.8,45.6,14.4,22,57.2
	c-23.6,42.4-8.4,96,34.4,119.6c30.8,17.2,68,14,95.6-6.8c1.6-1.2,4.4-0.8,5.6,0.8s0.8,4.4-0.8,5.6c-30,22.8-70.8,26-104.4,7.2
	C6,158-10.8,99.6,14.8,53.2s84-63.2,130.4-37.6C192,41.6,208.8,100,183.2,146.4L183.2,146.4z M79.2,139.6V60.8l59.2,39.6L79.2,139.6
	z M87.2,75.6v49.2l36.8-24.4C124,100.4,87.2,75.6,87.2,75.6z"/>
</svg>
